<svg xmlns="http://www.w3.org/2000/svg" viewBox="0 0 1200 260" width="1200" height="260" font-family="'Georgia',serif">
  <defs><linearGradient id="vg" x1="0" y1="0" x2="1" y2="0"><stop offset="0%" stop-color="#d4b483"/><stop offset="100%" stop-color="#b98a4e"/></linearGradient>
    <linearGradient id="bd" x1="0" y1="0" x2="1" y2="1"><stop offset="0%" stop-color="#d4b483"/><stop offset="100%" stop-color="#6b5530"/></linearGradient>
  </defs>
  <rect width="1200" height="260" rx="16" fill="#14110b"/>
  <rect x="1.5" y="1.5" width="1197" height="257" rx="15" fill="none" stroke="url(#bd)" stroke-width="2"/>
  <g stroke="#d4b483" stroke-width="3" fill="none">
  <line x1="1050" y1="56" x2="1140" y2="56"/><line x1="1050" y1="204" x2="1140" y2="204"/>
  <path d="M1058 56 C1058 110 1132 110 1132 56"/><path d="M1058 204 C1058 150 1132 150 1132 204"/>
  </g>
  <path d="M1075 80 C1080 105 1110 105 1115 80 Z" fill="#e3c38f" opacity="0.85"/>
  <path d="M1083 188 C1090 168 1100 168 1107 188 Z" fill="#e3c38f" opacity="0.85"/>
  <line x1="1095" y1="110" x2="1095" y2="150" stroke="#e3c38f" stroke-width="2"/>
  
  <text x="82" y="140" font-size="44" font-weight="700" fill="url(#vg)" letter-spacing="1">VOLTAIRE HOURGLASS</text>
  <text x="84" y="178" font-size="22" font-weight="600" fill="#e9dcc2">Orthography Time Farmer</text>
  <text x="84" y="208" font-size="15" fill="#c9a96a">&#8227; Browser userscript &#183; automate your Voltaire hours</text>
</svg>